<svg version="1.1" xmlns="http://www.w3.org/2000/svg" xmlns:xlink="http://www.w3.org/1999/xlink" viewBox="0 0 172 172"><g fill="none" fill-rule="nonzero" stroke="none" stroke-width="1" stroke-linecap="butt" stroke-linejoin="miter" stroke-miterlimit="10" stroke-dasharray="" stroke-dashoffset="0" font-family="none" font-weight="none" font-size="none" text-anchor="none" style="mix-blend-mode: normal"><path d="M0,172v-172h172v172z" fill="none"></path><g fill="#f55f8d"><path d="M6.88,30.96v68.8h37.84v6.88c0,6.90688 -2.12312,13.08813 -5.36156,17.40156c-3.225,4.3 -7.37719,6.67844 -11.83844,6.67844h-3.44v24.08h3.44c26.5525,0 48.16,-21.6075 48.16,-48.16v-75.68zM96.32,30.96v68.8h37.84v6.88c0,6.90688 -2.12312,13.08813 -5.36156,17.40156c-3.225,4.3 -7.37719,6.67844 -11.83844,6.67844h-3.44v24.08h3.44c26.5525,0 48.16,-21.6075 48.16,-48.16v-75.68zM13.76,37.84h55.04v68.8c0,21.62094 -16.70281,38.75375 -37.84,40.58125v-10.535c5.45563,-1.06156 10.4275,-3.88344 13.90781,-8.53281c4.23281,-5.64375 6.73219,-13.2225 6.73219,-21.51344v-13.76h-37.84zM103.2,37.84h55.04v68.8c0,21.62094 -16.70281,38.75375 -37.84,40.58125v-10.535c5.45563,-1.06156 10.4275,-3.88344 13.90781,-8.53281c4.23281,-5.64375 6.73219,-13.2225 6.73219,-21.51344v-13.76h-37.84z"></path></g></g></svg>